<svg width="31" height="31" viewBox="0 0 31 31" fill="none" xmlns="http://www.w3.org/2000/svg">
<path fill-rule="evenodd" clip-rule="evenodd" d="M20.6667 11.625C20.6667 12.9953 20.1223 14.3095 19.1534 15.2784C18.1845 16.2473 16.8703 16.7917 15.5 16.7917C14.1297 16.7917 12.8156 16.2473 11.8466 15.2784C10.8777 14.3095 10.3333 12.9953 10.3333 11.625C10.3333 10.2547 10.8777 8.94056 11.8466 7.97162C12.8156 7.00269 14.1297 6.45834 15.5 6.45834C16.8703 6.45834 18.1845 7.00269 19.1534 7.97162C20.1223 8.94056 20.6667 10.2547 20.6667 11.625ZM18.0833 11.625C18.0833 12.3102 17.8112 12.9672 17.3267 13.4517C16.8422 13.9362 16.1852 14.2083 15.5 14.2083C14.8149 14.2083 14.1578 13.9362 13.6733 13.4517C13.1888 12.9672 12.9167 12.3102 12.9167 11.625C12.9167 10.9399 13.1888 10.2828 13.6733 9.79832C14.1578 9.31385 14.8149 9.04168 15.5 9.04168C16.1852 9.04168 16.8422 9.31385 17.3267 9.79832C17.8112 10.2828 18.0833 10.9399 18.0833 11.625Z" fill="#D7D7D7"/>
<path fill-rule="evenodd" clip-rule="evenodd" d="M15.5 1.29167C7.65313 1.29167 1.29167 7.65313 1.29167 15.5C1.29167 23.3469 7.65313 29.7083 15.5 29.7083C23.3469 29.7083 29.7083 23.3469 29.7083 15.5C29.7083 7.65313 23.3469 1.29167 15.5 1.29167ZM3.87501 15.5C3.87501 18.1996 4.79596 20.6848 6.3395 22.6584C7.42351 21.2349 8.82196 20.0812 10.4256 19.2876C12.0293 18.4939 13.7947 18.0818 15.584 18.0833C17.3501 18.0817 19.0933 18.4831 20.6808 19.2572C22.2683 20.0312 23.6581 21.1574 24.7445 22.5499C25.8636 21.0821 26.6172 19.3688 26.9427 17.5519C27.2683 15.735 27.1566 13.8667 26.6167 12.1016C26.0769 10.3365 25.1245 8.72527 23.8383 7.4013C22.5522 6.07733 20.9692 5.07866 19.2205 4.48791C17.4718 3.89717 15.6075 3.73133 13.7819 4.00414C11.9563 4.27694 10.222 4.98053 8.72233 6.0567C7.22268 7.13287 6.00084 8.55067 5.15793 10.1928C4.31501 11.8349 3.87524 13.6542 3.87501 15.5ZM15.5 27.125C12.8314 27.129 10.2433 26.211 8.17367 24.5262C9.00671 23.3336 10.1155 22.3599 11.4057 21.688C12.6959 21.016 14.1293 20.6656 15.584 20.6667C17.0205 20.6655 18.4366 21.0071 19.7146 21.6631C20.9926 22.3191 22.0957 23.2705 22.9323 24.4383C20.8466 26.1778 18.2158 27.1288 15.5 27.125Z" fill="#D7D7D7"/>
</svg>
