<svg width="34" height="34" viewBox="0 0 34 34" fill="none" xmlns="http://www.w3.org/2000/svg">
<path d="M29.75 26.9167V17.3783C29.75 16.6096 29.5936 15.8491 29.2904 15.1428C28.9872 14.4365 28.5435 13.7993 27.9862 13.2699L18.9522 4.68917C18.4256 4.18893 17.727 3.91 17.0007 3.91C16.2744 3.91 15.5758 4.18893 15.0492 4.68917L6.01375 13.2699C5.45651 13.7993 5.01278 14.4365 4.70957 15.1428C4.40636 15.8491 4.25 16.6096 4.25 17.3783V26.9167C4.25 27.6681 4.54851 28.3888 5.07986 28.9201C5.61122 29.4515 6.33189 29.75 7.08333 29.75H26.9167C27.6681 29.75 28.3888 29.4515 28.9201 28.9201C29.4515 28.3888 29.75 27.6681 29.75 26.9167Z" stroke="#6D55F5" stroke-width="3" stroke-linecap="round" stroke-linejoin="round"/>
</svg>
