<svg width="197" height="198" viewBox="0 0 197 198" fill="none" xmlns="http://www.w3.org/2000/svg">
<ellipse cx="98.5001" cy="98.9372" rx="98.3824" ry="98.8196" fill="#ED4C5C" fill-opacity="0.12"/>
<ellipse cx="98.5" cy="98.9372" rx="80.8922" ry="81.3294" fill="#ED4C5C"/>
<path d="M81.8362 85.2366H71.5607C70.6523 85.2366 69.7811 85.5974 69.1387 86.2398C68.4964 86.8821 68.1355 87.7533 68.1355 88.6617V95.5121C68.1355 96.4205 68.4964 97.2917 69.1387 97.934C69.7811 98.5764 70.6523 98.9372 71.5607 98.9372H78.411C79.3194 98.9372 80.1906 99.2981 80.833 99.9404C81.4753 100.583 81.8362 101.454 81.8362 102.362V109.213C81.8362 110.121 81.4753 110.992 80.833 111.635C80.1906 112.277 79.3194 112.638 78.411 112.638H68.1355M116.088 112.638H126.363C127.272 112.638 128.143 112.277 128.785 111.635C129.428 110.992 129.788 110.121 129.788 109.213V102.362C129.788 101.454 129.428 100.583 128.785 99.9404C128.143 99.2981 127.272 98.9372 126.363 98.9372H119.513C118.605 98.9372 117.733 98.5764 117.091 97.934C116.449 97.2917 116.088 96.4205 116.088 95.5121V88.6617C116.088 87.7533 116.449 86.8821 117.091 86.2398C117.733 85.5974 118.605 85.2366 119.513 85.2366H129.788M92.1117 85.2366H105.812V112.638H92.1117V85.2366Z" stroke="white" stroke-width="5" stroke-linecap="round" stroke-linejoin="round"/>
</svg>
